<svg xmlns="http://www.w3.org/2000/svg" viewBox="0 0 100 100">
  <defs>
    <radialGradient id="crustGrad" cx="50%" cy="40%" r="50%">
      <stop offset="0%" stop-color="#e27c3e" />
      <stop offset="100%" stop-color="#b5521b" />
    </radialGradient>
    <radialGradient id="crumbGrad" cx="50%" cy="45%" r="45%">
      <stop offset="0%" stop-color="#fff8e3" />
      <stop offset="60%" stop-color="#ffeebb" />
      <stop offset="100%" stop-color="#ffd899" />
    </radialGradient>
    <linearGradient id="butterGrad" x1="0%" y1="0%" x2="100%" y2="100%">
      <stop offset="0%" stop-color="#fff176" />
      <stop offset="100%" stop-color="#fbc02d" />
    </linearGradient>
    <filter id="gooey">
      <feGaussianBlur in="SourceGraphic" stdDeviation="1.5" result="blur" />
      <feColorMatrix in="blur" mode="matrix" values="1 0 0 0 0  0 1 0 0 0  0 0 1 0 0  0 0 0 18 -8" result="goo" />
    </filter>
  </defs>

  <g filter="url(#gooey)">
    <path
      d="M 22,25 C 22,12 36,10 50,15 C 64,10 78,12 78,25 C 78,42 82,75 75,85 C 68,92 32,92 25,85 C 18,75 22,42 22,25 Z"
      fill="url(#crustGrad)"
    />
    <path
      d="M 25,27 C 25,16 37,14 50,18 C 63,14 75,16 75,27 C 75,42 78,72 72,81 C 66,87 34,87 28,81 C 22,72 25,42 25,27 Z"
      fill="url(#crumbGrad)"
    />
  </g>

  <g>
    <rect
      x="38"
      y="11"
      width="15"
      height="11"
      rx="3"
      transform="rotate(-8 45 15)"
      fill="url(#butterGrad)"
    />
    <path
      d="M 45,21 Q 48,26 47,29"
      stroke="#fbc02d"
      stroke-width="2.5"
      stroke-linecap="round"
      fill="none"
      opacity="0.8"
    />
  </g>

  <g>
    <circle
      cx="36"
      cy="48"
      r="4.5"
      fill="#0d0d0f"
    />
    <circle
      cx="34.5"
      cy="46.5"
      r="1.2"
      fill="#ffffff"
    />

    <circle
      cx="64"
      cy="48"
      r="4.5"
      fill="#0d0d0f"
    />
    <circle
      cx="62.5"
      cy="46.5"
      r="1.2"
      fill="#ffffff"
    />
  </g>

  <path
    d="M 43,56 Q 50,63 57,56"
    stroke="#0d0d0f"
    stroke-width="3.5"
    stroke-linecap="round"
    fill="none"
  />

  <circle cx="28" cy="55" r="3.5" fill="#f43f5e" opacity="0.25" />
  <circle cx="72" cy="55" r="3.5" fill="#f43f5e" opacity="0.25" />
</svg>
